<?xml version="1.0" encoding="UTF-8" standalone="no"?>
<svg
   width="83"
   height="19"
   viewBox="0 0 83 19"
   fill="none"
   version="1.1"
   id="svg1"
   sodipodi:docname="Link.svg"
   inkscape:version="1.3.2 (091e20e, 2023-11-25)"
   xmlns:inkscape="http://www.inkscape.org/namespaces/inkscape"
   xmlns:sodipodi="http://sodipodi.sourceforge.net/DTD/sodipodi-0.dtd"
   xmlns="http://www.w3.org/2000/svg"
   xmlns:svg="http://www.w3.org/2000/svg">
  <sodipodi:namedview
     id="namedview1"
     pagecolor="#ffffff"
     bordercolor="#000000"
     borderopacity="0.25"
     inkscape:showpageshadow="2"
     inkscape:pageopacity="0.0"
     inkscape:pagecheckerboard="0"
     inkscape:deskcolor="#d1d1d1"
     showgrid="false"
     inkscape:zoom="11.174203"
     inkscape:cx="37.452337"
     inkscape:cy="13.334285"
     inkscape:window-width="1512"
     inkscape:window-height="847"
     inkscape:window-x="1"
     inkscape:window-y="40"
     inkscape:window-maximized="0"
     inkscape:current-layer="svg1" />
  <g
     clip-path="url(#clip0_3_1082)"
     id="g1">
    <path
       d="M15.8526 16.8891H13.6256L13.2876 15.0422C12.0506 16.5721 10.5436 17.277 8.47461 17.277C4.02061 17.277 0.938614 13.8333 0.938614 8.83978C0.938614 3.82223 4.17761 0.310536 8.81161 0.310536C12.4556 0.310536 15.2246 2.56834 15.6506 5.98903H12.2536C11.9156 4.27819 10.6336 3.29827 8.76661 3.29827C6.08961 3.29827 4.46861 5.37409 4.46861 8.83978C4.46861 12.3745 6.08761 14.4263 8.87761 14.4263C11.0816 14.4263 12.6116 12.9434 12.7016 10.7546H9.12661V8.10985H15.8526V16.8891ZM32.1596 16.8911H28.4716L27.2126 13.2654H21.2516L19.9466 16.8911H16.3476L22.4426 0.631508H26.0646L32.1596 16.8911ZM24.2426 4.62216L22.1046 10.6656H26.3556L24.2426 4.62216ZM43.1826 3.68624H38.3686V16.8901H34.8386V3.68624H30.0216V0.653506H43.1826V3.68624ZM56.4056 3.57225H47.8806V7.10794H55.7086V9.91269H47.8806V13.9033H56.5636V16.8911H44.3936V0.653506H56.4056V3.57225ZM63.0906 0.300537C66.3136 0.300537 68.5316 2.14737 68.5316 4.84614C68.5316 6.45599 67.6446 7.73488 66.2446 8.11385C68.0656 8.56381 69.1396 9.98368 69.1396 11.9255C69.1396 15.0742 66.6406 17.3 63.0676 17.3C59.3526 17.3 57.0156 15.0742 57.0156 11.5235V11.2866H60.2146C60.2376 13.3224 61.2186 14.4583 62.9936 14.4583C64.6286 14.4583 65.7026 13.4404 65.7026 11.9495C65.7026 10.1027 64.3016 9.48672 62.7366 9.48672L61.9196 9.51072V7.14193C62.1056 7.16093 62.2926 7.16893 62.4806 7.16593C64.3956 7.16593 65.3296 6.47899 65.3296 5.08311C65.3296 3.82823 64.4186 3.0003 63.0646 3.0003C61.5236 3.0003 60.6356 3.99421 60.5886 5.84105H57.4366C57.5556 2.43135 59.6346 0.300537 63.0906 0.300537ZM77.5826 16.8911H74.1216V6.31901H70.2256V3.88022H70.6386C72.8846 3.88022 74.4426 2.9973 74.9016 0.627508H77.5826V16.8911Z"
       fill="#313131"
       id="path1" />
  </g>
  <defs
     id="defs1">
    <clipPath
       id="clip0_3_1082">
      <rect
         width="82"
         height="18.1"
         fill="white"
         transform="translate(0.938614 0.300537)"
         id="rect1" />
    </clipPath>
  </defs>
  <path
     style="fill:#313131;fill-opacity:1"
     d="M 3.8481493,1.7003451 77.499938,16.555991 57.453764,5.7274781 44.208971,16.555991 30.06926,0.62644291 34.722836,3.5796738 19.86719,16.645483 9.0386763,8.3227416 3.9376412,15.571581 43.135069,3.490182 56.379862,0.71593476 34.722836,16.466499 74.725691,0.71593476 H 77.14197 L 60.228012,16.198024 22.462453,0.53695107 0.98441029,9.1281682"
     id="path4" />
</svg>
